<svg xmlns="http://www.w3.org/2000/svg" viewBox="0 0 104.717 117.826">
  <defs>
    <style>
      .cls-1 {
        fill: #1a436a;
      }
    </style>
  </defs>
  <path id="Path_12" data-name="Path 12" class="cls-1" d="M13.075,102.383h20a19.735,19.735,0,0,0,38.523,0h20A13.09,13.09,0,0,0,104.641,89.2a13.314,13.314,0,0,0-7.853-12l-5.63-2.519V53.192A39.943,39.943,0,0,0,68.193,17.039V16a15.854,15.854,0,1,0-31.707,0v.889A39.015,39.015,0,0,0,13.371,52.3V74.676l-5.63,2.519A13.079,13.079,0,0,0,1.073,94.53a13.314,13.314,0,0,0,12,7.853ZM52.339,8.89a7.113,7.113,0,0,1,6.816,5.186c-1.778-.3-3.556-.444-5.334-.593a37.757,37.757,0,0,0-8.149.593A6.94,6.94,0,0,1,52.339,8.89Zm9.927,93.493a10.8,10.8,0,0,1-14.372,5.482,10.437,10.437,0,0,1-5.482-5.482Z" transform="translate(0.075)"/>
</svg>
