<svg xmlns="http://www.w3.org/2000/svg" viewBox="0 0 41.254 41.62">
  <defs>
    <style>
      .cls-1 {
        fill: #fff;
      }
    </style>
  </defs>
  <g id="Group_252" data-name="Group 252" transform="translate(0.011)">
    <path id="Path_25029" data-name="Path 25029" class="cls-1" d="M6.5,42.3a3.863,3.863,0,0,0,1.036-.094c6.121-1.224,10.735-5.179,14.03-8.475,3.39-3.39,7.439-8,8.569-14.313a5.98,5.98,0,0,0-1.695-5.367l-.847-.847A4.832,4.832,0,0,0,23.918,11.7a5.2,5.2,0,0,0-3.672,1.507l-1.318,1.318A4.811,4.811,0,0,0,17.609,18.2a4.453,4.453,0,0,0,2.166,3.3,1.09,1.09,0,0,1,.471.659,1.132,1.132,0,0,1-.188.753l-.377.471a47.206,47.206,0,0,1-7.815,7.815l-.094.094a1.893,1.893,0,0,1-1.224.377,1.974,1.974,0,0,1-1.036-.753,3.871,3.871,0,0,0-2.919-1.883,3.878,3.878,0,0,0-3.3,1.13L1.508,31.945a5.2,5.2,0,0,0,0,7.345L2.92,40.7A4.864,4.864,0,0,0,6.5,42.3Zm17.42-27.872a2.358,2.358,0,0,1,1.695.753l.847.847a3.134,3.134,0,0,1,.847,2.825c-1.036,5.556-4.708,9.793-7.815,12.806-3.013,3.013-7.251,6.686-12.618,7.721a2.348,2.348,0,0,1-2.166-.659L3.3,37.312a2.387,2.387,0,0,1,0-3.39h0l1.977-1.695a1.209,1.209,0,0,1,.942-.377,1.082,1.082,0,0,1,.847.565,4.1,4.1,0,0,0,2.919,2.072,4.334,4.334,0,0,0,3.484-.942l.094-.094a49.281,49.281,0,0,0,8.286-8.286l.377-.471a3.868,3.868,0,0,0,.753-3.013,3.8,3.8,0,0,0-1.789-2.542,1.469,1.469,0,0,1-.753-1.224,1.639,1.639,0,0,1,.471-1.412l1.318-1.318A2.532,2.532,0,0,1,23.918,14.431Z" transform="translate(11.005 -0.683)"/>
    <g id="Group_251" data-name="Group 251" transform="translate(-0.011)">
      <path id="Path_25030" data-name="Path 25030" class="cls-1" d="M18.912,25.454a1.448,1.448,0,0,0,1.412-1.412,9.444,9.444,0,0,1,9.416-9.416,1.412,1.412,0,1,0,0-2.825A12.217,12.217,0,0,0,17.5,24.041,1.448,1.448,0,0,0,18.912,25.454Z" transform="translate(-6.389 -0.689)"/>
      <path id="Path_25031" data-name="Path 25031" class="cls-1" d="M18.912,24.765a1.448,1.448,0,0,0,1.412-1.412A20.576,20.576,0,0,1,40.852,2.825a1.448,1.448,0,0,0,1.412-1.412A1.448,1.448,0,0,0,40.852,0,23.348,23.348,0,0,0,17.5,23.352,1.387,1.387,0,0,0,18.912,24.765Z" transform="translate(-17.5)"/>
      <path id="Path_25032" data-name="Path 25032" class="cls-1" d="M18.912,25.1a1.448,1.448,0,0,0,1.412-1.412A15.11,15.11,0,0,1,35.391,8.625a1.412,1.412,0,1,0,0-2.825A17.883,17.883,0,0,0,17.5,23.691,1.448,1.448,0,0,0,18.912,25.1Z" transform="translate(-12.039 -0.339)"/>
    </g>
  </g>
</svg>
