<svg xmlns="http://www.w3.org/2000/svg" viewBox="0 0 192.048 124.164">
  <defs>
    <style>
      .cls-1 {
        fill: #1a436a;
      }
    </style>
  </defs>
  <g id="Group_23" data-name="Group 23" transform="translate(0.238 -0.04)">
    <circle id="Ellipse_10" data-name="Ellipse 10" class="cls-1" cx="16.537" cy="16.537" r="16.537" transform="translate(127.09 91.13)"/>
    <circle id="Ellipse_11" data-name="Ellipse 11" class="cls-1" cx="16.537" cy="16.537" r="16.537" transform="translate(23.276 91.13)"/>
    <path id="Path_17" data-name="Path 17" class="cls-1" d="M191.629,72c0-4.364.23-6.661-3.9-9.187-2.756-1.837-5.972-2.756-9.187-3.9a81.609,81.609,0,0,0-14.7-3.9c-9.646-2.067-20.212-.459-28.25-7.35-2.756-2.3-11.025-8.957-18.374-15.159A46.631,46.631,0,0,0,88.045,22.157V17.334a4.619,4.619,0,0,0-9.187,0v4.594H53.593a47.567,47.567,0,0,0-27.561,8.957c-4.823,3.445-9.646,7.12-14.24,10.565-2.067,1.378-3.9,2.986-5.972,4.364C4.442,46.963,1.456,48.341,1,49.948c0,.23,0,.459-.23.459-2.526,12.173,0,25.954,4.364,37.667H17.993A21.211,21.211,0,0,1,60.254,90.6a19.926,19.926,0,0,1-1.148,6.431h63.621a19.926,19.926,0,0,1-1.148-6.431,21.13,21.13,0,1,1,42.261,0h21.59C193.467,88.534,191.629,77.51,191.629,72ZM63.24,50.178a1.324,1.324,0,0,1-1.378,1.378H23.505a1.472,1.472,0,0,1-1.378-1.837c.689-3.9,2.986-7.35,5.512-10.335A35.513,35.513,0,0,1,56.809,27.21a7.981,7.981,0,0,1,2.986.459,5.423,5.423,0,0,1,2.067,1.837,7.345,7.345,0,0,1,1.148,4.364l.23,16.307ZM126.4,51.556H71.278a1.085,1.085,0,0,1-1.148-1.148V31.574s-.23-3.445,5.283-4.364a87.422,87.422,0,0,1,9.417-.459A50,50,0,0,1,126.86,49.259c0,.23.23.23.23.459C127.779,50.637,127.32,51.556,126.4,51.556Z" transform="translate(0 17.066)"/>
    <path id="Path_18" data-name="Path 18" class="cls-1" d="M40.337,9.25A15.517,15.517,0,0,0,30,18.207a1.678,1.678,0,0,0,.919,2.3,1.043,1.043,0,0,0,1.148,0,1.887,1.887,0,0,0,1.148-1.148,11.656,11.656,0,0,1,18.145-4.594,1.794,1.794,0,0,0,2.3-2.756A16.307,16.307,0,0,0,40.337,9.25Z" transform="translate(38.98 11.37)"/>
    <path id="Path_19" data-name="Path 19" class="cls-1" d="M42.739,5.169A25.933,25.933,0,0,0,26.2,18.49a1.678,1.678,0,0,0,.919,2.3,2.071,2.071,0,0,0,1.148.23,2.293,2.293,0,0,0,1.148-.919A21.874,21.874,0,0,1,43.428,8.614a21.035,21.035,0,0,1,17.685,3.445A1.816,1.816,0,0,0,63.18,9.074,25.4,25.4,0,0,0,42.739,5.169Z" transform="translate(34.052 5.804)"/>
    <path id="Path_20" data-name="Path 20" class="cls-1" d="M74.441,6.609A35.535,35.535,0,0,0,22.3,19.241a1.7,1.7,0,1,0,2.986,1.608A31.869,31.869,0,0,1,45.961,4.312,31.382,31.382,0,0,1,72.144,9.365a1.519,1.519,0,0,0,1.378.23c.459,0,.689-.23.919-.689A1.3,1.3,0,0,0,74.441,6.609Z" transform="translate(28.992 0)"/>
  </g>
</svg>
