<svg xmlns="http://www.w3.org/2000/svg" viewBox="0 0 116.01 116.01">
  <defs>
    <style>
      .cls-1 {
        fill: #1a436a;
      }
    </style>
  </defs>
  <path id="Path_13" data-name="Path 13" class="cls-1" d="M58,0a58,58,0,1,0,58,58A58.175,58.175,0,0,0,58,0ZM9.667,60.422H2.417V55.588H9.667Zm45.921-58h4.834V9.667H55.588ZM50.754,24.169a7.251,7.251,0,1,1,14.5,0v18.61A17.762,17.762,0,0,0,58,41.087a17.762,17.762,0,0,0-7.251,1.692ZM37.461,88.7a6.956,6.956,0,0,1-5.075,2.175A6.582,6.582,0,0,1,27.311,88.7a7.008,7.008,0,0,1,0-10.151L42.054,63.805A16.878,16.878,0,0,0,52.2,73.956Zm22.96,24.894H55.588v-7.251h4.834ZM88.7,88.7a2.336,2.336,0,0,1-3.384,0L64.772,68.156A12.993,12.993,0,0,1,58,70.089a12.084,12.084,0,1,1,0-24.169A12.119,12.119,0,0,1,70.089,58a12.993,12.993,0,0,1-1.933,6.767L88.7,85.316A2.336,2.336,0,0,1,88.7,88.7Zm17.643-28.277V55.588h7.251v4.834Z"/>
</svg>
