<svg xmlns="http://www.w3.org/2000/svg" viewBox="0 0 96.427 122.823">
  <defs>
    <style>
      .cls-1 {
        fill: #1a436a;
      }
    </style>
  </defs>
  <path id="Path_14" data-name="Path 14" class="cls-1" d="M95.888,30.975h0a5.888,5.888,0,0,0-.808-1.347L66.8,1.077A5.888,5.888,0,0,0,65.451.269h0A3.416,3.416,0,0,0,63.835,0H4.04A4.142,4.142,0,0,0,0,4.04V118.782a4.142,4.142,0,0,0,4.04,4.04H92.386a4.142,4.142,0,0,0,4.04-4.04V32.322C96.426,31.783,96.157,31.514,95.888,30.975ZM19.393,45.25H63.835a4.04,4.04,0,1,1,0,8.08H19.393a4.04,4.04,0,1,1,0-8.08ZM61.681,83.767H19.393a4.04,4.04,0,1,1,0-8.08H61.681a4.142,4.142,0,0,1,4.04,4.04A3.967,3.967,0,0,1,61.681,83.767Zm16.43-15.083H19.393a4.04,4.04,0,1,1,0-8.08H78.111a4.04,4.04,0,1,1,0,8.08Zm-10.235-40.4V13.737L82.42,28.282Z"/>
</svg>
