<svg xmlns="http://www.w3.org/2000/svg" viewBox="0 0 41.116 26.825">
  <defs>
    <style>
      .cls-1 {
        fill: #fff;
      }
    </style>
  </defs>
  <path id="Path_25033" data-name="Path 25033" class="cls-1" d="M36.843,0H4.273A4.255,4.255,0,0,0,0,4.273V22.552a4.255,4.255,0,0,0,4.273,4.273h32.57a4.255,4.255,0,0,0,4.273-4.273V4.273A4.286,4.286,0,0,0,36.843,0Zm0,1.9a3.07,3.07,0,0,1,.95.19L28.724,9.543a.928.928,0,0,0,.57,1.662.851.851,0,0,0,.617-.237l9.163-7.454a1.968,1.968,0,0,1,.142.76V22.552a3.206,3.206,0,0,1-.095.665L27.49,11.869h0a.046.046,0,0,0-.047-.047.926.926,0,0,0-1.329-.142l-5.555,4.558L3.323,2.089a3.07,3.07,0,0,1,.95-.19ZM1.994,23.217a2.8,2.8,0,0,1-.095-.665V4.273a1.968,1.968,0,0,1,.142-.76l10.967,8.973Zm2.279,1.709a2.587,2.587,0,0,1-1.045-.237L14.481,13.721l5.46,4.463a.921.921,0,0,0,1.234,0l5.46-4.463L37.887,24.689a2.587,2.587,0,0,1-1.045.237Z"/>
</svg>
