<svg xmlns="http://www.w3.org/2000/svg" viewBox="0 0 27.283 35.078">
  <defs>
    <style>
      .cls-1 {
        fill: #fff;
      }
    </style>
  </defs>
  <path id="Path_25028" data-name="Path 25028" class="cls-1" d="M13.641,0A13.64,13.64,0,0,0,0,13.641c0,8.445,7.34,21.437,13.641,21.437S27.283,22.086,27.283,13.641A13.64,13.64,0,0,0,13.641,0Zm0,32.48C9.549,32.48,2.6,21.761,2.6,13.641a11.043,11.043,0,0,1,22.086,0C24.685,21.761,17.734,32.48,13.641,32.48Zm0-24.685a5.846,5.846,0,1,0,5.846,5.846A5.822,5.822,0,0,0,13.641,7.8Zm0,9.094a3.248,3.248,0,1,1,3.248-3.248A3.216,3.216,0,0,1,13.641,16.889Z"/>
</svg>
