<svg id="Group_17" data-name="Group 17" xmlns="http://www.w3.org/2000/svg" viewBox="0 0 112.38 136.865">
  <defs>
    <style>
      .cls-1 {
        fill: #1a436a;
      }
    </style>
  </defs>
  <path id="Path_9" data-name="Path 9" class="cls-1" d="M.006,46.121V61.857a79.2,79.2,0,0,0,17.1,49.259,71.916,71.916,0,0,0,36.4,25.314,8.438,8.438,0,0,0,5.2,0c15.736-4.789,28.187-14.094,37.9-27.229a78.018,78.018,0,0,0,14.641-34.618,69.843,69.843,0,0,0,.958-11.9c.137-12.178,0-24.356.137-36.534a1.814,1.814,0,0,0-1.368-2.052C93.051,16.292,75.263,8.356,57.338.283a2.9,2.9,0,0,0-2.6,0L1.374,24.092A2.038,2.038,0,0,0,.006,26.418ZM9.584,33.533a1.775,1.775,0,0,1,1.231-1.916c14.778-6.568,29.419-13.136,44.2-19.7a3.022,3.022,0,0,1,2.189,0c14.778,6.568,29.692,13.136,44.47,19.7a1.594,1.594,0,0,1,1.095,1.642V63.636a59.829,59.829,0,0,1-.821,9.852,65.476,65.476,0,0,1-12.178,28.735A59.619,59.619,0,0,1,58.3,124.8a7.934,7.934,0,0,1-4.379,0,59.771,59.771,0,0,1-30.377-20.935A66.763,66.763,0,0,1,9.447,62.952V49.816c0-5.336.137-10.81.137-16.283Z" transform="translate(0.015 0.025)"/>
  <path id="Path_10" data-name="Path 10" class="cls-1" d="M13.665,32.057l36.944-16.42a1.735,1.735,0,0,1,.821-.137V62.707H12.844c-.137-1.505-.137-3.01-.137-4.515V33.562A1.332,1.332,0,0,1,13.665,32.057Z" transform="translate(4.691 5.743)"/>
  <path id="Path_11" data-name="Path 11" class="cls-1" d="M79.586,50H41V97.207a6.933,6.933,0,0,0,1.779-.274A50.148,50.148,0,0,0,68.914,78.187,54.161,54.161,0,0,0,79.039,54.242C79.313,52.873,79.45,51.368,79.586,50ZM41,50Z" transform="translate(15.122 18.45)"/>
</svg>
