<svg xmlns="http://www.w3.org/2000/svg" viewBox="0 0 39.731 32.271">
  <defs>
    <style>
      .cls-1 {
        fill: #fff;
      }
    </style>
  </defs>
  <path id="Path_25026" data-name="Path 25026" class="cls-1" d="M0,28.527a22.9,22.9,0,0,0,12.492,3.643c15.094,0,23.6-12.752,23.162-24.2a17.3,17.3,0,0,0,4.077-4.251,17.054,17.054,0,0,1-4.684,1.3A8.374,8.374,0,0,0,38.6.507a15.111,15.111,0,0,1-5.2,2A8.079,8.079,0,0,0,19.605,9.876,22.593,22.593,0,0,1,2.776,1.461,8.071,8.071,0,0,0,5.292,12.305a7.424,7.424,0,0,1-3.643-1.041,8.15,8.15,0,0,0,6.506,8.068,8.56,8.56,0,0,1-3.643.173,8.244,8.244,0,0,0,7.634,5.639A16.666,16.666,0,0,1,0,28.527Z" transform="translate(0 0.1)"/>
</svg>
